{
	"asset":{
		"generator":"Khronos glTF Blender I/O v5.2.40",
		"version":"2.0"
	},
	"extensionsUsed":[
		"KHR_materials_emissive_strength"
	],
	"scene":0,
	"scenes":[
		{
			"name":"Scene",
			"nodes":[
				12
			]
		}
	],
	"nodes":[
		{
			"mesh":0,
			"name":"MerchantBody | Merchant | aged brass"
		},
		{
			"mesh":1,
			"name":"MerchantBody | Merchant | indigo sewn canvas"
		},
		{
			"mesh":2,
			"name":"MerchantBody | Merchant | ivory canvas and stitches"
		},
		{
			"mesh":3,
			"name":"MerchantBody | Merchant | oiled cedar"
		},
		{
			"mesh":4,
			"name":"MerchantBody | Merchant | warm lantern panes"
		},
		{
			"children":[
				0,
				1,
				2,
				3,
				4
			],
			"extras":{
				"game_pivot_xyz_m":[
					0,
					0,
					0
				]
			},
			"name":"MerchantBody"
		},
		{
			"mesh":5,
			"name":"MerchantPropellerL | Merchant | aged brass"
		},
		{
			"mesh":6,
			"name":"MerchantPropellerL | Merchant | oiled cedar"
		},
		{
			"children":[
				6,
				7
			],
			"extras":{
				"game_pivot_xyz_m":[
					-2.01,
					0.4,
					2.9
				],
				"rotation_axis":"local Z, game coordinates"
			},
			"name":"MerchantPropellerL",
			"translation":[
				-2.009999990463257,
				0.4000000059604645,
				2.9000000953674316
			]
		},
		{
			"mesh":7,
			"name":"MerchantPropellerR | Merchant | aged brass"
		},
		{
			"mesh":8,
			"name":"MerchantPropellerR | Merchant | oiled cedar"
		},
		{
			"children":[
				9,
				10
			],
			"extras":{
				"game_pivot_xyz_m":[
					2.01,
					0.4,
					2.9
				],
				"rotation_axis":"local Z, game coordinates"
			},
			"name":"MerchantPropellerR",
			"translation":[
				2.009999990463257,
				0.4000000059604645,
				2.9000000953674316
			]
		},
		{
			"children":[
				5,
				8,
				11
			],
			"name":"MerchantAirship"
		}
	],
	"materials":[
		{
			"doubleSided":true,
			"name":"Merchant | aged brass",
			"pbrMetallicRoughness":{
				"baseColorFactor":[
					0.5299999713897705,
					0.28999999165534973,
					0.07500000298023224,
					1
				],
				"metallicFactor":0.7200000286102295,
				"roughnessFactor":0.3499999940395355
			}
		},
		{
			"doubleSided":true,
			"name":"Merchant | indigo sewn canvas",
			"pbrMetallicRoughness":{
				"baseColorTexture":{
					"index":0
				},
				"metallicFactor":0,
				"roughnessFactor":0.9399999976158142
			}
		},
		{
			"doubleSided":true,
			"name":"Merchant | ivory canvas and stitches",
			"pbrMetallicRoughness":{
				"baseColorFactor":[
					0.7200000286102295,
					0.6100000143051147,
					0.38999998569488525,
					1
				],
				"metallicFactor":0,
				"roughnessFactor":0.9100000262260437
			}
		},
		{
			"doubleSided":true,
			"name":"Merchant | oiled cedar",
			"normalTexture":{
				"index":1,
				"scale":0.30000001192092896
			},
			"pbrMetallicRoughness":{
				"baseColorTexture":{
					"index":2
				},
				"metallicFactor":0,
				"roughnessFactor":0.7200000286102295
			}
		},
		{
			"doubleSided":true,
			"emissiveFactor":[
				1,
				0.3799999952316284,
				0.05999999865889549
			],
			"extensions":{
				"KHR_materials_emissive_strength":{
					"emissiveStrength":2.4000000953674316
				}
			},
			"name":"Merchant | warm lantern panes",
			"pbrMetallicRoughness":{
				"baseColorFactor":[
					1,
					0.3799999952316284,
					0.05999999865889549,
					1
				],
				"metallicFactor":0,
				"roughnessFactor":0.2800000011920929
			}
		}
	],
	"meshes":[
		{
			"name":"MerchantBody | Merchant | aged brass.010",
			"primitives":[
				{
					"attributes":{
						"POSITION":0,
						"NORMAL":1,
						"TEXCOORD_0":2,
						"TANGENT":3
					},
					"indices":4,
					"material":0
				}
			]
		},
		{
			"name":"MerchantBody | Merchant | indigo sewn canvas.001",
			"primitives":[
				{
					"attributes":{
						"POSITION":5,
						"NORMAL":6,
						"TEXCOORD_0":7,
						"TANGENT":8
					},
					"indices":9,
					"material":1
				}
			]
		},
		{
			"name":"MerchantBody | Merchant | ivory canvas and stitches.001",
			"primitives":[
				{
					"attributes":{
						"POSITION":10,
						"NORMAL":11,
						"TEXCOORD_0":12,
						"TANGENT":13
					},
					"indices":14,
					"material":2
				}
			]
		},
		{
			"name":"MerchantBody | Merchant | oiled cedar.005",
			"primitives":[
				{
					"attributes":{
						"POSITION":15,
						"NORMAL":16,
						"TEXCOORD_0":17,
						"TANGENT":18
					},
					"indices":19,
					"material":3
				}
			]
		},
		{
			"name":"MerchantBody | Merchant | warm lantern panes.003",
			"primitives":[
				{
					"attributes":{
						"POSITION":20,
						"NORMAL":21,
						"TEXCOORD_0":22,
						"TANGENT":23
					},
					"indices":24,
					"material":4
				}
			]
		},
		{
			"name":"MerchantPropellerL | Merchant | aged brass.001",
			"primitives":[
				{
					"attributes":{
						"POSITION":25,
						"NORMAL":26,
						"TEXCOORD_0":27,
						"TANGENT":28
					},
					"indices":29,
					"material":0
				}
			]
		},
		{
			"name":"MerchantPropellerL | Merchant | oiled cedar.001",
			"primitives":[
				{
					"attributes":{
						"POSITION":30,
						"NORMAL":31,
						"TEXCOORD_0":32,
						"TANGENT":33
					},
					"indices":34,
					"material":3
				}
			]
		},
		{
			"name":"MerchantPropellerR | Merchant | aged brass.001",
			"primitives":[
				{
					"attributes":{
						"POSITION":35,
						"NORMAL":36,
						"TEXCOORD_0":37,
						"TANGENT":38
					},
					"indices":39,
					"material":0
				}
			]
		},
		{
			"name":"MerchantPropellerR | Merchant | oiled cedar.001",
			"primitives":[
				{
					"attributes":{
						"POSITION":40,
						"NORMAL":41,
						"TEXCOORD_0":42,
						"TANGENT":43
					},
					"indices":34,
					"material":3
				}
			]
		}
	],
	"textures":[
		{
			"sampler":0,
			"source":0
		},
		{
			"sampler":0,
			"source":1
		},
		{
			"sampler":0,
			"source":2
		}
	],
	"images":[
		{
			"mimeType":"image/png",
			"name":"indigo-canvas",
			"uri":"indigo-canvas.png"
		},
		{
			"mimeType":"image/png",
			"name":"cedar-normal",
			"uri":"cedar-normal.png"
		},
		{
			"mimeType":"image/png",
			"name":"cedar",
			"uri":"cedar.png"
		}
	],
	"accessors":[
		{
			"bufferView":0,
			"componentType":5126,
			"count":2412,
			"max":[
				2.302000045776367,
				0.9650000333786011,
				4.684109687805176
			],
			"min":[
				-2.302000045776367,
				-0.6403029561042786,
				-4.929782390594482
			],
			"type":"VEC3"
		},
		{
			"bufferView":1,
			"componentType":5126,
			"count":2412,
			"type":"VEC3"
		},
		{
			"bufferView":2,
			"componentType":5126,
			"count":2412,
			"type":"VEC2"
		},
		{
			"bufferView":3,
			"componentType":5126,
			"count":2412,
			"type":"VEC4"
		},
		{
			"bufferView":4,
			"componentType":5123,
			"count":3096,
			"type":"SCALAR"
		},
		{
			"bufferView":5,
			"componentType":5126,
			"count":572,
			"max":[
				2.940000057220459,
				7.6318583488464355,
				7
			],
			"min":[
				-2.940000057220459,
				0.23999999463558197,
				-7
			],
			"type":"VEC3"
		},
		{
			"bufferView":6,
			"componentType":5126,
			"count":572,
			"type":"VEC3"
		},
		{
			"bufferView":7,
			"componentType":5126,
			"count":572,
			"type":"VEC2"
		},
		{
			"bufferView":8,
			"componentType":5126,
			"count":572,
			"type":"VEC4"
		},
		{
			"bufferView":9,
			"componentType":5123,
			"count":840,
			"type":"SCALAR"
		},
		{
			"bufferView":10,
			"componentType":5126,
			"count":168,
			"max":[
				1.4700000286102295,
				7.940000057220459,
				7
			],
			"min":[
				-1.4700000286102295,
				3.3399999141693115,
				-7
			],
			"type":"VEC3"
		},
		{
			"bufferView":11,
			"componentType":5126,
			"count":168,
			"type":"VEC3"
		},
		{
			"bufferView":12,
			"componentType":5126,
			"count":168,
			"type":"VEC2"
		},
		{
			"bufferView":13,
			"componentType":5126,
			"count":168,
			"type":"VEC4"
		},
		{
			"bufferView":14,
			"componentType":5123,
			"count":240,
			"type":"SCALAR"
		},
		{
			"bufferView":15,
			"componentType":5126,
			"count":2200,
			"max":[
				2.259999990463257,
				4.371267795562744,
				5.030753135681152
			],
			"min":[
				-2.259999990463257,
				-2,
				-5.027482986450195
			],
			"type":"VEC3"
		},
		{
			"bufferView":16,
			"componentType":5126,
			"count":2200,
			"type":"VEC3"
		},
		{
			"bufferView":17,
			"componentType":5126,
			"count":2200,
			"type":"VEC2"
		},
		{
			"bufferView":18,
			"componentType":5126,
			"count":2200,
			"type":"VEC4"
		},
		{
			"bufferView":19,
			"componentType":5123,
			"count":3024,
			"type":"SCALAR"
		},
		{
			"bufferView":20,
			"componentType":5126,
			"count":384,
			"max":[
				0.940000057220459,
				1.065000057220459,
				3.299999952316284
			],
			"min":[
				-0.940000057220459,
				0.5099999904632568,
				-3.879903793334961
			],
			"type":"VEC3"
		},
		{
			"bufferView":21,
			"componentType":5126,
			"count":384,
			"type":"VEC3"
		},
		{
			"bufferView":22,
			"componentType":5126,
			"count":384,
			"type":"VEC2"
		},
		{
			"bufferView":23,
			"componentType":5126,
			"count":384,
			"type":"VEC4"
		},
		{
			"bufferView":24,
			"componentType":5123,
			"count":588,
			"type":"SCALAR"
		},
		{
			"bufferView":25,
			"componentType":5126,
			"count":48,
			"max":[
				0.16999995708465576,
				0.16999998688697815,
				0.11999988555908203
			],
			"min":[
				-0.1700000762939453,
				-0.16999998688697815,
				-0.1100001335144043
			],
			"type":"VEC3"
		},
		{
			"bufferView":26,
			"componentType":5126,
			"count":48,
			"type":"VEC3"
		},
		{
			"bufferView":27,
			"componentType":5126,
			"count":48,
			"type":"VEC2"
		},
		{
			"bufferView":28,
			"componentType":5126,
			"count":48,
			"type":"VEC4"
		},
		{
			"bufferView":29,
			"componentType":5123,
			"count":84,
			"type":"SCALAR"
		},
		{
			"bufferView":30,
			"componentType":5126,
			"count":192,
			"max":[
				0.8899999856948853,
				0.8899999856948853,
				0.06999993324279785
			],
			"min":[
				-0.8900001049041748,
				-0.8899999856948853,
				-0.06000018119812012
			],
			"type":"VEC3"
		},
		{
			"bufferView":31,
			"componentType":5126,
			"count":192,
			"type":"VEC3"
		},
		{
			"bufferView":32,
			"componentType":5126,
			"count":192,
			"type":"VEC2"
		},
		{
			"bufferView":33,
			"componentType":5126,
			"count":192,
			"type":"VEC4"
		},
		{
			"bufferView":34,
			"componentType":5123,
			"count":240,
			"type":"SCALAR"
		},
		{
			"bufferView":35,
			"componentType":5126,
			"count":48,
			"max":[
				0.1700000762939453,
				0.16999998688697815,
				0.11999988555908203
			],
			"min":[
				-0.16999995708465576,
				-0.16999998688697815,
				-0.1100001335144043
			],
			"type":"VEC3"
		},
		{
			"bufferView":36,
			"componentType":5126,
			"count":48,
			"type":"VEC3"
		},
		{
			"bufferView":37,
			"componentType":5126,
			"count":48,
			"type":"VEC2"
		},
		{
			"bufferView":38,
			"componentType":5126,
			"count":48,
			"type":"VEC4"
		},
		{
			"bufferView":39,
			"componentType":5123,
			"count":84,
			"type":"SCALAR"
		},
		{
			"bufferView":40,
			"componentType":5126,
			"count":192,
			"max":[
				0.8900001049041748,
				0.8899999856948853,
				0.06999993324279785
			],
			"min":[
				-0.8899999856948853,
				-0.8899999856948853,
				-0.06000018119812012
			],
			"type":"VEC3"
		},
		{
			"bufferView":41,
			"componentType":5126,
			"count":192,
			"type":"VEC3"
		},
		{
			"bufferView":42,
			"componentType":5126,
			"count":192,
			"type":"VEC2"
		},
		{
			"bufferView":43,
			"componentType":5126,
			"count":192,
			"type":"VEC4"
		}
	],
	"bufferViews":[
		{
			"buffer":0,
			"byteLength":28944,
			"byteOffset":0,
			"target":34962
		},
		{
			"buffer":0,
			"byteLength":28944,
			"byteOffset":28944,
			"target":34962
		},
		{
			"buffer":0,
			"byteLength":19296,
			"byteOffset":57888,
			"target":34962
		},
		{
			"buffer":0,
			"byteLength":38592,
			"byteOffset":77184,
			"target":34962
		},
		{
			"buffer":0,
			"byteLength":6192,
			"byteOffset":115776,
			"target":34963
		},
		{
			"buffer":0,
			"byteLength":6864,
			"byteOffset":121968,
			"target":34962
		},
		{
			"buffer":0,
			"byteLength":6864,
			"byteOffset":128832,
			"target":34962
		},
		{
			"buffer":0,
			"byteLength":4576,
			"byteOffset":135696,
			"target":34962
		},
		{
			"buffer":0,
			"byteLength":9152,
			"byteOffset":140272,
			"target":34962
		},
		{
			"buffer":0,
			"byteLength":1680,
			"byteOffset":149424,
			"target":34963
		},
		{
			"buffer":0,
			"byteLength":2016,
			"byteOffset":151104,
			"target":34962
		},
		{
			"buffer":0,
			"byteLength":2016,
			"byteOffset":153120,
			"target":34962
		},
		{
			"buffer":0,
			"byteLength":1344,
			"byteOffset":155136,
			"target":34962
		},
		{
			"buffer":0,
			"byteLength":2688,
			"byteOffset":156480,
			"target":34962
		},
		{
			"buffer":0,
			"byteLength":480,
			"byteOffset":159168,
			"target":34963
		},
		{
			"buffer":0,
			"byteLength":26400,
			"byteOffset":159648,
			"target":34962
		},
		{
			"buffer":0,
			"byteLength":26400,
			"byteOffset":186048,
			"target":34962
		},
		{
			"buffer":0,
			"byteLength":17600,
			"byteOffset":212448,
			"target":34962
		},
		{
			"buffer":0,
			"byteLength":35200,
			"byteOffset":230048,
			"target":34962
		},
		{
			"buffer":0,
			"byteLength":6048,
			"byteOffset":265248,
			"target":34963
		},
		{
			"buffer":0,
			"byteLength":4608,
			"byteOffset":271296,
			"target":34962
		},
		{
			"buffer":0,
			"byteLength":4608,
			"byteOffset":275904,
			"target":34962
		},
		{
			"buffer":0,
			"byteLength":3072,
			"byteOffset":280512,
			"target":34962
		},
		{
			"buffer":0,
			"byteLength":6144,
			"byteOffset":283584,
			"target":34962
		},
		{
			"buffer":0,
			"byteLength":1176,
			"byteOffset":289728,
			"target":34963
		},
		{
			"buffer":0,
			"byteLength":576,
			"byteOffset":290904,
			"target":34962
		},
		{
			"buffer":0,
			"byteLength":576,
			"byteOffset":291480,
			"target":34962
		},
		{
			"buffer":0,
			"byteLength":384,
			"byteOffset":292056,
			"target":34962
		},
		{
			"buffer":0,
			"byteLength":768,
			"byteOffset":292440,
			"target":34962
		},
		{
			"buffer":0,
			"byteLength":168,
			"byteOffset":293208,
			"target":34963
		},
		{
			"buffer":0,
			"byteLength":2304,
			"byteOffset":293376,
			"target":34962
		},
		{
			"buffer":0,
			"byteLength":2304,
			"byteOffset":295680,
			"target":34962
		},
		{
			"buffer":0,
			"byteLength":1536,
			"byteOffset":297984,
			"target":34962
		},
		{
			"buffer":0,
			"byteLength":3072,
			"byteOffset":299520,
			"target":34962
		},
		{
			"buffer":0,
			"byteLength":480,
			"byteOffset":302592,
			"target":34963
		},
		{
			"buffer":0,
			"byteLength":576,
			"byteOffset":303072,
			"target":34962
		},
		{
			"buffer":0,
			"byteLength":576,
			"byteOffset":303648,
			"target":34962
		},
		{
			"buffer":0,
			"byteLength":384,
			"byteOffset":304224,
			"target":34962
		},
		{
			"buffer":0,
			"byteLength":768,
			"byteOffset":304608,
			"target":34962
		},
		{
			"buffer":0,
			"byteLength":168,
			"byteOffset":305376,
			"target":34963
		},
		{
			"buffer":0,
			"byteLength":2304,
			"byteOffset":305544,
			"target":34962
		},
		{
			"buffer":0,
			"byteLength":2304,
			"byteOffset":307848,
			"target":34962
		},
		{
			"buffer":0,
			"byteLength":1536,
			"byteOffset":310152,
			"target":34962
		},
		{
			"buffer":0,
			"byteLength":3072,
			"byteOffset":311688,
			"target":34962
		}
	],
	"samplers":[
		{
			"magFilter":9729,
			"minFilter":9987
		}
	],
	"buffers":[
		{
			"byteLength":314760,
			"uri":"trader-lod.bin"
		}
	]
}
