{
	"asset":{
		"generator":"Khronos glTF Blender I/O v5.2.40",
		"version":"2.0"
	},
	"extensionsUsed":[
		"KHR_materials_emissive_strength"
	],
	"scene":0,
	"scenes":[
		{
			"name":"Scene",
			"nodes":[
				12
			]
		}
	],
	"nodes":[
		{
			"mesh":0,
			"name":"MerchantBody | Merchant | aged brass"
		},
		{
			"mesh":1,
			"name":"MerchantBody | Merchant | indigo sewn canvas"
		},
		{
			"mesh":2,
			"name":"MerchantBody | Merchant | ivory canvas and stitches"
		},
		{
			"mesh":3,
			"name":"MerchantBody | Merchant | oiled cedar"
		},
		{
			"mesh":4,
			"name":"MerchantBody | Merchant | warm lantern panes"
		},
		{
			"children":[
				0,
				1,
				2,
				3,
				4
			],
			"extras":{
				"game_pivot_xyz_m":[
					0,
					0,
					0
				]
			},
			"name":"MerchantBody"
		},
		{
			"mesh":5,
			"name":"MerchantPropellerL | Merchant | aged brass"
		},
		{
			"mesh":6,
			"name":"MerchantPropellerL | Merchant | oiled cedar"
		},
		{
			"children":[
				6,
				7
			],
			"extras":{
				"game_pivot_xyz_m":[
					-2.01,
					0.4,
					2.9
				],
				"rotation_axis":"local Z, game coordinates"
			},
			"name":"MerchantPropellerL",
			"translation":[
				-2.009999990463257,
				0.4000000059604645,
				2.9000000953674316
			]
		},
		{
			"mesh":7,
			"name":"MerchantPropellerR | Merchant | aged brass"
		},
		{
			"mesh":8,
			"name":"MerchantPropellerR | Merchant | oiled cedar"
		},
		{
			"children":[
				9,
				10
			],
			"extras":{
				"game_pivot_xyz_m":[
					2.01,
					0.4,
					2.9
				],
				"rotation_axis":"local Z, game coordinates"
			},
			"name":"MerchantPropellerR",
			"translation":[
				2.009999990463257,
				0.4000000059604645,
				2.9000000953674316
			]
		},
		{
			"children":[
				5,
				8,
				11
			],
			"name":"MerchantAirship"
		}
	],
	"materials":[
		{
			"doubleSided":true,
			"name":"Merchant | aged brass",
			"pbrMetallicRoughness":{
				"baseColorFactor":[
					0.5299999713897705,
					0.28999999165534973,
					0.07500000298023224,
					1
				],
				"metallicFactor":0.7200000286102295,
				"roughnessFactor":0.3499999940395355
			}
		},
		{
			"doubleSided":true,
			"name":"Merchant | indigo sewn canvas",
			"pbrMetallicRoughness":{
				"baseColorTexture":{
					"index":0
				},
				"metallicFactor":0,
				"roughnessFactor":0.9399999976158142
			}
		},
		{
			"doubleSided":true,
			"name":"Merchant | ivory canvas and stitches",
			"pbrMetallicRoughness":{
				"baseColorFactor":[
					0.7200000286102295,
					0.6100000143051147,
					0.38999998569488525,
					1
				],
				"metallicFactor":0,
				"roughnessFactor":0.9100000262260437
			}
		},
		{
			"doubleSided":true,
			"name":"Merchant | oiled cedar",
			"normalTexture":{
				"index":1,
				"scale":0.30000001192092896
			},
			"pbrMetallicRoughness":{
				"baseColorTexture":{
					"index":2
				},
				"metallicFactor":0,
				"roughnessFactor":0.7200000286102295
			}
		},
		{
			"doubleSided":true,
			"emissiveFactor":[
				1,
				0.3799999952316284,
				0.05999999865889549
			],
			"extensions":{
				"KHR_materials_emissive_strength":{
					"emissiveStrength":2.4000000953674316
				}
			},
			"name":"Merchant | warm lantern panes",
			"pbrMetallicRoughness":{
				"baseColorFactor":[
					1,
					0.3799999952316284,
					0.05999999865889549,
					1
				],
				"metallicFactor":0,
				"roughnessFactor":0.2800000011920929
			}
		}
	],
	"meshes":[
		{
			"name":"MerchantBody | Merchant | aged brass",
			"primitives":[
				{
					"attributes":{
						"POSITION":0,
						"NORMAL":1,
						"TEXCOORD_0":2,
						"TANGENT":3
					},
					"indices":4,
					"material":0
				}
			]
		},
		{
			"name":"MerchantBody | Merchant | indigo sewn canvas",
			"primitives":[
				{
					"attributes":{
						"POSITION":5,
						"NORMAL":6,
						"TEXCOORD_0":7,
						"TANGENT":8
					},
					"indices":9,
					"material":1
				}
			]
		},
		{
			"name":"MerchantBody | Merchant | ivory canvas and stitches",
			"primitives":[
				{
					"attributes":{
						"POSITION":10,
						"NORMAL":11,
						"TEXCOORD_0":12,
						"TANGENT":13
					},
					"indices":14,
					"material":2
				}
			]
		},
		{
			"name":"MerchantBody | Merchant | oiled cedar",
			"primitives":[
				{
					"attributes":{
						"POSITION":15,
						"NORMAL":16,
						"TEXCOORD_0":17,
						"TANGENT":18
					},
					"indices":19,
					"material":3
				}
			]
		},
		{
			"name":"MerchantBody | Merchant | warm lantern panes",
			"primitives":[
				{
					"attributes":{
						"POSITION":20,
						"NORMAL":21,
						"TEXCOORD_0":22,
						"TANGENT":23
					},
					"indices":24,
					"material":4
				}
			]
		},
		{
			"name":"MerchantPropellerL | Merchant | aged brass",
			"primitives":[
				{
					"attributes":{
						"POSITION":25,
						"NORMAL":26,
						"TEXCOORD_0":27,
						"TANGENT":28
					},
					"indices":29,
					"material":0
				}
			]
		},
		{
			"name":"MerchantPropellerL | Merchant | oiled cedar",
			"primitives":[
				{
					"attributes":{
						"POSITION":30,
						"NORMAL":31,
						"TEXCOORD_0":32,
						"TANGENT":33
					},
					"indices":34,
					"material":3
				}
			]
		},
		{
			"name":"MerchantPropellerR | Merchant | aged brass",
			"primitives":[
				{
					"attributes":{
						"POSITION":35,
						"NORMAL":36,
						"TEXCOORD_0":37,
						"TANGENT":38
					},
					"indices":39,
					"material":0
				}
			]
		},
		{
			"name":"MerchantPropellerR | Merchant | oiled cedar",
			"primitives":[
				{
					"attributes":{
						"POSITION":40,
						"NORMAL":41,
						"TEXCOORD_0":42,
						"TANGENT":43
					},
					"indices":34,
					"material":3
				}
			]
		}
	],
	"textures":[
		{
			"sampler":0,
			"source":0
		},
		{
			"sampler":0,
			"source":1
		},
		{
			"sampler":0,
			"source":2
		}
	],
	"images":[
		{
			"mimeType":"image/png",
			"name":"indigo-canvas",
			"uri":"indigo-canvas.png"
		},
		{
			"mimeType":"image/png",
			"name":"cedar-normal",
			"uri":"cedar-normal.png"
		},
		{
			"mimeType":"image/png",
			"name":"cedar",
			"uri":"cedar.png"
		}
	],
	"accessors":[
		{
			"bufferView":0,
			"componentType":5126,
			"count":21824,
			"max":[
				2.9560000896453857,
				2.255000114440918,
				4.684109687805176
			],
			"min":[
				-2.9560000896453857,
				-1.371999979019165,
				-4.929782390594482
			],
			"type":"VEC3"
		},
		{
			"bufferView":1,
			"componentType":5126,
			"count":21824,
			"type":"VEC3"
		},
		{
			"bufferView":2,
			"componentType":5126,
			"count":21824,
			"type":"VEC2"
		},
		{
			"bufferView":3,
			"componentType":5126,
			"count":21824,
			"type":"VEC4"
		},
		{
			"bufferView":4,
			"componentType":5123,
			"count":29964,
			"type":"SCALAR"
		},
		{
			"bufferView":5,
			"componentType":5126,
			"count":926,
			"max":[
				2.940000057220459,
				7.6318583488464355,
				7
			],
			"min":[
				-2.940000057220459,
				0.23999999463558197,
				-7
			],
			"type":"VEC3"
		},
		{
			"bufferView":6,
			"componentType":5126,
			"count":926,
			"type":"VEC3"
		},
		{
			"bufferView":7,
			"componentType":5126,
			"count":926,
			"type":"VEC2"
		},
		{
			"bufferView":8,
			"componentType":5126,
			"count":926,
			"type":"VEC4"
		},
		{
			"bufferView":9,
			"componentType":5123,
			"count":1332,
			"type":"SCALAR"
		},
		{
			"bufferView":10,
			"componentType":5126,
			"count":12142,
			"max":[
				2.9690001010894775,
				7.967718124389648,
				7
			],
			"min":[
				-2.9690001010894775,
				3.312281847000122,
				-7
			],
			"type":"VEC3"
		},
		{
			"bufferView":11,
			"componentType":5126,
			"count":12142,
			"type":"VEC3"
		},
		{
			"bufferView":12,
			"componentType":5126,
			"count":12142,
			"type":"VEC2"
		},
		{
			"bufferView":13,
			"componentType":5126,
			"count":12142,
			"type":"VEC4"
		},
		{
			"bufferView":14,
			"componentType":5123,
			"count":13440,
			"type":"SCALAR"
		},
		{
			"bufferView":15,
			"componentType":5126,
			"count":12765,
			"max":[
				2.998999834060669,
				7.997482776641846,
				5.031000137329102
			],
			"min":[
				-2.998999834060669,
				-2,
				-5.031000137329102
			],
			"type":"VEC3"
		},
		{
			"bufferView":16,
			"componentType":5126,
			"count":12765,
			"type":"VEC3"
		},
		{
			"bufferView":17,
			"componentType":5126,
			"count":12765,
			"type":"VEC2"
		},
		{
			"bufferView":18,
			"componentType":5126,
			"count":12765,
			"type":"VEC4"
		},
		{
			"bufferView":19,
			"componentType":5123,
			"count":17646,
			"type":"SCALAR"
		},
		{
			"bufferView":20,
			"componentType":5126,
			"count":1032,
			"max":[
				0.940000057220459,
				1.065000057220459,
				3.299999952316284
			],
			"min":[
				-0.940000057220459,
				0.5099999904632568,
				-3.879903793334961
			],
			"type":"VEC3"
		},
		{
			"bufferView":21,
			"componentType":5126,
			"count":1032,
			"type":"VEC3"
		},
		{
			"bufferView":22,
			"componentType":5126,
			"count":1032,
			"type":"VEC2"
		},
		{
			"bufferView":23,
			"componentType":5126,
			"count":1032,
			"type":"VEC4"
		},
		{
			"bufferView":24,
			"componentType":5123,
			"count":1452,
			"type":"SCALAR"
		},
		{
			"bufferView":25,
			"componentType":5126,
			"count":88,
			"max":[
				0.8899999856948853,
				0.8899999856948853,
				0.11999988555908203
			],
			"min":[
				-0.8900001049041748,
				-0.8899999856948853,
				-0.1100001335144043
			],
			"type":"VEC3"
		},
		{
			"bufferView":26,
			"componentType":5126,
			"count":88,
			"type":"VEC3"
		},
		{
			"bufferView":27,
			"componentType":5126,
			"count":88,
			"type":"VEC2"
		},
		{
			"bufferView":28,
			"componentType":5126,
			"count":88,
			"type":"VEC4"
		},
		{
			"bufferView":29,
			"componentType":5123,
			"count":156,
			"type":"SCALAR"
		},
		{
			"bufferView":30,
			"componentType":5126,
			"count":192,
			"max":[
				0.8899999856948853,
				0.8899999856948853,
				0.06999993324279785
			],
			"min":[
				-0.8900001049041748,
				-0.8899999856948853,
				-0.06000018119812012
			],
			"type":"VEC3"
		},
		{
			"bufferView":31,
			"componentType":5126,
			"count":192,
			"type":"VEC3"
		},
		{
			"bufferView":32,
			"componentType":5126,
			"count":192,
			"type":"VEC2"
		},
		{
			"bufferView":33,
			"componentType":5126,
			"count":192,
			"type":"VEC4"
		},
		{
			"bufferView":34,
			"componentType":5123,
			"count":240,
			"type":"SCALAR"
		},
		{
			"bufferView":35,
			"componentType":5126,
			"count":88,
			"max":[
				0.8900001049041748,
				0.8899999856948853,
				0.11999988555908203
			],
			"min":[
				-0.8899999856948853,
				-0.8899999856948853,
				-0.1100001335144043
			],
			"type":"VEC3"
		},
		{
			"bufferView":36,
			"componentType":5126,
			"count":88,
			"type":"VEC3"
		},
		{
			"bufferView":37,
			"componentType":5126,
			"count":88,
			"type":"VEC2"
		},
		{
			"bufferView":38,
			"componentType":5126,
			"count":88,
			"type":"VEC4"
		},
		{
			"bufferView":39,
			"componentType":5123,
			"count":156,
			"type":"SCALAR"
		},
		{
			"bufferView":40,
			"componentType":5126,
			"count":192,
			"max":[
				0.8900001049041748,
				0.8899999856948853,
				0.06999993324279785
			],
			"min":[
				-0.8899999856948853,
				-0.8899999856948853,
				-0.06000018119812012
			],
			"type":"VEC3"
		},
		{
			"bufferView":41,
			"componentType":5126,
			"count":192,
			"type":"VEC3"
		},
		{
			"bufferView":42,
			"componentType":5126,
			"count":192,
			"type":"VEC2"
		},
		{
			"bufferView":43,
			"componentType":5126,
			"count":192,
			"type":"VEC4"
		}
	],
	"bufferViews":[
		{
			"buffer":0,
			"byteLength":261888,
			"byteOffset":0,
			"target":34962
		},
		{
			"buffer":0,
			"byteLength":261888,
			"byteOffset":261888,
			"target":34962
		},
		{
			"buffer":0,
			"byteLength":174592,
			"byteOffset":523776,
			"target":34962
		},
		{
			"buffer":0,
			"byteLength":349184,
			"byteOffset":698368,
			"target":34962
		},
		{
			"buffer":0,
			"byteLength":59928,
			"byteOffset":1047552,
			"target":34963
		},
		{
			"buffer":0,
			"byteLength":11112,
			"byteOffset":1107480,
			"target":34962
		},
		{
			"buffer":0,
			"byteLength":11112,
			"byteOffset":1118592,
			"target":34962
		},
		{
			"buffer":0,
			"byteLength":7408,
			"byteOffset":1129704,
			"target":34962
		},
		{
			"buffer":0,
			"byteLength":14816,
			"byteOffset":1137112,
			"target":34962
		},
		{
			"buffer":0,
			"byteLength":2664,
			"byteOffset":1151928,
			"target":34963
		},
		{
			"buffer":0,
			"byteLength":145704,
			"byteOffset":1154592,
			"target":34962
		},
		{
			"buffer":0,
			"byteLength":145704,
			"byteOffset":1300296,
			"target":34962
		},
		{
			"buffer":0,
			"byteLength":97136,
			"byteOffset":1446000,
			"target":34962
		},
		{
			"buffer":0,
			"byteLength":194272,
			"byteOffset":1543136,
			"target":34962
		},
		{
			"buffer":0,
			"byteLength":26880,
			"byteOffset":1737408,
			"target":34963
		},
		{
			"buffer":0,
			"byteLength":153180,
			"byteOffset":1764288,
			"target":34962
		},
		{
			"buffer":0,
			"byteLength":153180,
			"byteOffset":1917468,
			"target":34962
		},
		{
			"buffer":0,
			"byteLength":102120,
			"byteOffset":2070648,
			"target":34962
		},
		{
			"buffer":0,
			"byteLength":204240,
			"byteOffset":2172768,
			"target":34962
		},
		{
			"buffer":0,
			"byteLength":35292,
			"byteOffset":2377008,
			"target":34963
		},
		{
			"buffer":0,
			"byteLength":12384,
			"byteOffset":2412300,
			"target":34962
		},
		{
			"buffer":0,
			"byteLength":12384,
			"byteOffset":2424684,
			"target":34962
		},
		{
			"buffer":0,
			"byteLength":8256,
			"byteOffset":2437068,
			"target":34962
		},
		{
			"buffer":0,
			"byteLength":16512,
			"byteOffset":2445324,
			"target":34962
		},
		{
			"buffer":0,
			"byteLength":2904,
			"byteOffset":2461836,
			"target":34963
		},
		{
			"buffer":0,
			"byteLength":1056,
			"byteOffset":2464740,
			"target":34962
		},
		{
			"buffer":0,
			"byteLength":1056,
			"byteOffset":2465796,
			"target":34962
		},
		{
			"buffer":0,
			"byteLength":704,
			"byteOffset":2466852,
			"target":34962
		},
		{
			"buffer":0,
			"byteLength":1408,
			"byteOffset":2467556,
			"target":34962
		},
		{
			"buffer":0,
			"byteLength":312,
			"byteOffset":2468964,
			"target":34963
		},
		{
			"buffer":0,
			"byteLength":2304,
			"byteOffset":2469276,
			"target":34962
		},
		{
			"buffer":0,
			"byteLength":2304,
			"byteOffset":2471580,
			"target":34962
		},
		{
			"buffer":0,
			"byteLength":1536,
			"byteOffset":2473884,
			"target":34962
		},
		{
			"buffer":0,
			"byteLength":3072,
			"byteOffset":2475420,
			"target":34962
		},
		{
			"buffer":0,
			"byteLength":480,
			"byteOffset":2478492,
			"target":34963
		},
		{
			"buffer":0,
			"byteLength":1056,
			"byteOffset":2478972,
			"target":34962
		},
		{
			"buffer":0,
			"byteLength":1056,
			"byteOffset":2480028,
			"target":34962
		},
		{
			"buffer":0,
			"byteLength":704,
			"byteOffset":2481084,
			"target":34962
		},
		{
			"buffer":0,
			"byteLength":1408,
			"byteOffset":2481788,
			"target":34962
		},
		{
			"buffer":0,
			"byteLength":312,
			"byteOffset":2483196,
			"target":34963
		},
		{
			"buffer":0,
			"byteLength":2304,
			"byteOffset":2483508,
			"target":34962
		},
		{
			"buffer":0,
			"byteLength":2304,
			"byteOffset":2485812,
			"target":34962
		},
		{
			"buffer":0,
			"byteLength":1536,
			"byteOffset":2488116,
			"target":34962
		},
		{
			"buffer":0,
			"byteLength":3072,
			"byteOffset":2489652,
			"target":34962
		}
	],
	"samplers":[
		{
			"magFilter":9729,
			"minFilter":9987
		}
	],
	"buffers":[
		{
			"byteLength":2492724,
			"uri":"trader.bin"
		}
	]
}
