{
	"asset":{
		"generator":"Khronos glTF Blender I/O v5.2.40",
		"version":"2.0"
	},
	"extensionsUsed":[
		"KHR_materials_emissive_strength"
	],
	"scene":0,
	"scenes":[
		{
			"name":"Scene",
			"nodes":[
				19
			]
		}
	],
	"nodes":[
		{
			"mesh":0,
			"name":"GuardianArmL | Fauna | cave limestone"
		},
		{
			"mesh":1,
			"name":"GuardianArmL | Fauna | fractured obsidian"
		},
		{
			"mesh":2,
			"name":"GuardianArmL | Fauna | mineral olive patina"
		},
		{
			"children":[
				0,
				1,
				2
			],
			"extras":{
				"game_pivot_xyz_m":[
					-0.49,
					1.3,
					0.0
				],
				"local_axes":"Y up; -Z forward; L means negative X"
			},
			"name":"GuardianArmL",
			"translation":[
				-0.49000000953674316,
				1.2999999523162842,
				0
			]
		},
		{
			"mesh":3,
			"name":"GuardianArmR | Fauna | cave limestone"
		},
		{
			"mesh":4,
			"name":"GuardianArmR | Fauna | fractured obsidian"
		},
		{
			"mesh":5,
			"name":"GuardianArmR | Fauna | mineral olive patina"
		},
		{
			"children":[
				4,
				5,
				6
			],
			"extras":{
				"game_pivot_xyz_m":[
					0.49,
					1.3,
					0.0
				],
				"local_axes":"Y up; -Z forward; L means negative X"
			},
			"name":"GuardianArmR",
			"translation":[
				0.49000000953674316,
				1.2999999523162842,
				0
			]
		},
		{
			"mesh":6,
			"name":"GuardianBody | Fauna | amber eyes"
		},
		{
			"mesh":7,
			"name":"GuardianBody | Fauna | cave limestone"
		},
		{
			"mesh":8,
			"name":"GuardianBody | Fauna | fractured obsidian"
		},
		{
			"mesh":9,
			"name":"GuardianBody | Fauna | mineral olive patina"
		},
		{
			"children":[
				8,
				9,
				10,
				11
			],
			"extras":{
				"game_pivot_xyz_m":[
					0,
					0,
					0
				],
				"local_axes":"Y up; -Z forward; L means negative X"
			},
			"name":"GuardianBody"
		},
		{
			"mesh":10,
			"name":"GuardianLegL | Fauna | cave limestone"
		},
		{
			"mesh":11,
			"name":"GuardianLegL | Fauna | fractured obsidian"
		},
		{
			"children":[
				13,
				14
			],
			"extras":{
				"game_pivot_xyz_m":[
					-0.22,
					0.74,
					0.0
				],
				"local_axes":"Y up; -Z forward; L means negative X"
			},
			"name":"GuardianLegL",
			"translation":[
				-0.2199999988079071,
				0.7400000095367432,
				0
			]
		},
		{
			"mesh":12,
			"name":"GuardianLegR | Fauna | cave limestone"
		},
		{
			"mesh":13,
			"name":"GuardianLegR | Fauna | fractured obsidian"
		},
		{
			"children":[
				16,
				17
			],
			"extras":{
				"game_pivot_xyz_m":[
					0.22,
					0.74,
					0.0
				],
				"local_axes":"Y up; -Z forward; L means negative X"
			},
			"name":"GuardianLegR",
			"translation":[
				0.2199999988079071,
				0.7400000095367432,
				0
			]
		},
		{
			"children":[
				3,
				7,
				12,
				15,
				18
			],
			"name":"Guardian"
		}
	],
	"materials":[
		{
			"doubleSided":true,
			"name":"Fauna | cave limestone",
			"pbrMetallicRoughness":{
				"baseColorTexture":{
					"index":0
				},
				"metallicFactor":0,
				"roughnessFactor":0.9200000166893005
			}
		},
		{
			"doubleSided":true,
			"name":"Fauna | fractured obsidian",
			"pbrMetallicRoughness":{
				"baseColorFactor":[
					0.020999999716877937,
					0.03200000151991844,
					0.03700000047683716,
					1
				],
				"metallicFactor":0.23000000417232513,
				"roughnessFactor":0.30000001192092896
			}
		},
		{
			"doubleSided":true,
			"name":"Fauna | mineral olive patina",
			"pbrMetallicRoughness":{
				"baseColorTexture":{
					"index":1
				},
				"metallicFactor":0,
				"roughnessFactor":0.9700000286102295
			}
		},
		{
			"doubleSided":true,
			"emissiveFactor":[
				1,
				0.28999999165534973,
				0.03500000014901161
			],
			"extensions":{
				"KHR_materials_emissive_strength":{
					"emissiveStrength":3.4000000953674316
				}
			},
			"name":"Fauna | amber eyes",
			"pbrMetallicRoughness":{
				"baseColorFactor":[
					1,
					0.28999999165534973,
					0.03500000014901161,
					1
				],
				"metallicFactor":0,
				"roughnessFactor":0.27000001072883606
			}
		}
	],
	"meshes":[
		{
			"name":"GuardianArmL | Fauna | cave limestone",
			"primitives":[
				{
					"attributes":{
						"POSITION":0,
						"NORMAL":1,
						"TEXCOORD_0":2
					},
					"indices":3,
					"material":0
				}
			]
		},
		{
			"name":"GuardianArmL | Fauna | fractured obsidian",
			"primitives":[
				{
					"attributes":{
						"POSITION":4,
						"NORMAL":5,
						"TEXCOORD_0":6
					},
					"indices":7,
					"material":1
				}
			]
		},
		{
			"name":"GuardianArmL | Fauna | mineral olive patina",
			"primitives":[
				{
					"attributes":{
						"POSITION":8,
						"NORMAL":9,
						"TEXCOORD_0":10
					},
					"indices":11,
					"material":2
				}
			]
		},
		{
			"name":"GuardianArmR | Fauna | cave limestone",
			"primitives":[
				{
					"attributes":{
						"POSITION":12,
						"NORMAL":13,
						"TEXCOORD_0":14
					},
					"indices":15,
					"material":0
				}
			]
		},
		{
			"name":"GuardianArmR | Fauna | fractured obsidian",
			"primitives":[
				{
					"attributes":{
						"POSITION":16,
						"NORMAL":17,
						"TEXCOORD_0":18
					},
					"indices":19,
					"material":1
				}
			]
		},
		{
			"name":"GuardianArmR | Fauna | mineral olive patina",
			"primitives":[
				{
					"attributes":{
						"POSITION":20,
						"NORMAL":21,
						"TEXCOORD_0":22
					},
					"indices":23,
					"material":2
				}
			]
		},
		{
			"name":"GuardianBody | Fauna | amber eyes",
			"primitives":[
				{
					"attributes":{
						"POSITION":24,
						"NORMAL":25,
						"TEXCOORD_0":26
					},
					"indices":27,
					"material":3
				}
			]
		},
		{
			"name":"GuardianBody | Fauna | cave limestone",
			"primitives":[
				{
					"attributes":{
						"POSITION":28,
						"NORMAL":29,
						"TEXCOORD_0":30
					},
					"indices":31,
					"material":0
				}
			]
		},
		{
			"name":"GuardianBody | Fauna | fractured obsidian",
			"primitives":[
				{
					"attributes":{
						"POSITION":32,
						"NORMAL":33,
						"TEXCOORD_0":34
					},
					"indices":35,
					"material":1
				}
			]
		},
		{
			"name":"GuardianBody | Fauna | mineral olive patina",
			"primitives":[
				{
					"attributes":{
						"POSITION":36,
						"NORMAL":37,
						"TEXCOORD_0":38
					},
					"indices":39,
					"material":2
				}
			]
		},
		{
			"name":"GuardianLegL | Fauna | cave limestone",
			"primitives":[
				{
					"attributes":{
						"POSITION":40,
						"NORMAL":41,
						"TEXCOORD_0":42
					},
					"indices":43,
					"material":0
				}
			]
		},
		{
			"name":"GuardianLegL | Fauna | fractured obsidian",
			"primitives":[
				{
					"attributes":{
						"POSITION":44,
						"NORMAL":45,
						"TEXCOORD_0":46
					},
					"indices":47,
					"material":1
				}
			]
		},
		{
			"name":"GuardianLegR | Fauna | cave limestone",
			"primitives":[
				{
					"attributes":{
						"POSITION":48,
						"NORMAL":49,
						"TEXCOORD_0":50
					},
					"indices":51,
					"material":0
				}
			]
		},
		{
			"name":"GuardianLegR | Fauna | fractured obsidian",
			"primitives":[
				{
					"attributes":{
						"POSITION":52,
						"NORMAL":53,
						"TEXCOORD_0":54
					},
					"indices":55,
					"material":1
				}
			]
		}
	],
	"textures":[
		{
			"sampler":0,
			"source":0
		},
		{
			"sampler":0,
			"source":0
		}
	],
	"images":[
		{
			"mimeType":"image/png",
			"name":"limestone-world",
			"uri":"limestone-world.png"
		}
	],
	"accessors":[
		{
			"bufferView":0,
			"componentType":5126,
			"count":2400,
			"max":[
				0.1840098798274994,
				0.1950000524520874,
				0.24740692973136902
			],
			"min":[
				-0.3734281063079834,
				-0.9299999475479126,
				-0.27479857206344604
			],
			"type":"VEC3"
		},
		{
			"bufferView":1,
			"componentType":5126,
			"count":2400,
			"type":"VEC3"
		},
		{
			"bufferView":2,
			"componentType":5126,
			"count":2400,
			"type":"VEC2"
		},
		{
			"bufferView":3,
			"componentType":5123,
			"count":2700,
			"type":"SCALAR"
		},
		{
			"bufferView":4,
			"componentType":5126,
			"count":480,
			"max":[
				0.18683898448944092,
				0.15250003337860107,
				0.22748637199401855
			],
			"min":[
				-0.34230631589889526,
				-0.9179999828338623,
				-0.2325216680765152
			],
			"type":"VEC3"
		},
		{
			"bufferView":5,
			"componentType":5126,
			"count":480,
			"type":"VEC3"
		},
		{
			"bufferView":6,
			"componentType":5126,
			"count":480,
			"type":"VEC2"
		},
		{
			"bufferView":7,
			"componentType":5123,
			"count":540,
			"type":"SCALAR"
		},
		{
			"bufferView":8,
			"componentType":5126,
			"count":480,
			"max":[
				-0.0407143235206604,
				0.18350005149841309,
				0.14374296367168427
			],
			"min":[
				-0.24387484788894653,
				0.13850009441375732,
				-0.021029794588685036
			],
			"type":"VEC3"
		},
		{
			"bufferView":9,
			"componentType":5126,
			"count":480,
			"type":"VEC3"
		},
		{
			"bufferView":10,
			"componentType":5126,
			"count":480,
			"type":"VEC2"
		},
		{
			"bufferView":11,
			"componentType":5123,
			"count":540,
			"type":"SCALAR"
		},
		{
			"bufferView":12,
			"componentType":5126,
			"count":2400,
			"max":[
				0.3712922930717468,
				0.1950000524520874,
				0.25564542412757874
			],
			"min":[
				-0.18426194787025452,
				-0.9299999475479126,
				-0.27510982751846313
			],
			"type":"VEC3"
		},
		{
			"bufferView":13,
			"componentType":5126,
			"count":2400,
			"type":"VEC3"
		},
		{
			"bufferView":14,
			"componentType":5126,
			"count":2400,
			"type":"VEC2"
		},
		{
			"bufferView":15,
			"componentType":5123,
			"count":2700,
			"type":"SCALAR"
		},
		{
			"bufferView":16,
			"componentType":5126,
			"count":480,
			"max":[
				0.3382670283317566,
				0.15250003337860107,
				0.22073349356651306
			],
			"min":[
				-0.19039049744606018,
				-0.9179999828338623,
				-0.2205120325088501
			],
			"type":"VEC3"
		},
		{
			"bufferView":17,
			"componentType":5126,
			"count":480,
			"type":"VEC3"
		},
		{
			"bufferView":18,
			"componentType":5126,
			"count":480,
			"type":"VEC2"
		},
		{
			"bufferView":19,
			"componentType":5123,
			"count":540,
			"type":"SCALAR"
		},
		{
			"bufferView":20,
			"componentType":5126,
			"count":480,
			"max":[
				0.24746137857437134,
				0.18350005149841309,
				0.13993577659130096
			],
			"min":[
				0.042321205139160156,
				0.13850009441375732,
				-0.020075540989637375
			],
			"type":"VEC3"
		},
		{
			"bufferView":21,
			"componentType":5126,
			"count":480,
			"type":"VEC3"
		},
		{
			"bufferView":22,
			"componentType":5126,
			"count":480,
			"type":"VEC2"
		},
		{
			"bufferView":23,
			"componentType":5123,
			"count":540,
			"type":"SCALAR"
		},
		{
			"bufferView":24,
			"componentType":5126,
			"count":320,
			"max":[
				0.15510721504688263,
				1.653499960899353,
				-0.20789746940135956
			],
			"min":[
				-0.154812291264534,
				1.628499984741211,
				-0.2201005071401596
			],
			"type":"VEC3"
		},
		{
			"bufferView":25,
			"componentType":5126,
			"count":320,
			"type":"VEC3"
		},
		{
			"bufferView":26,
			"componentType":5126,
			"count":320,
			"type":"VEC2"
		},
		{
			"bufferView":27,
			"componentType":5123,
			"count":360,
			"type":"SCALAR"
		},
		{
			"bufferView":28,
			"componentType":5126,
			"count":7518,
			"max":[
				0.4783083200454712,
				1.774999976158142,
				0.3068689703941345
			],
			"min":[
				-0.4877498745918274,
				0.7250000238418579,
				-0.3050236701965332
			],
			"type":"VEC3"
		},
		{
			"bufferView":29,
			"componentType":5126,
			"count":7518,
			"type":"VEC3"
		},
		{
			"bufferView":30,
			"componentType":5126,
			"count":7518,
			"type":"VEC2"
		},
		{
			"bufferView":31,
			"componentType":5123,
			"count":8460,
			"type":"SCALAR"
		},
		{
			"bufferView":32,
			"componentType":5126,
			"count":960,
			"max":[
				0.35266390442848206,
				1.75,
				0.2505546808242798
			],
			"min":[
				-0.3641427457332611,
				0.7549999952316284,
				-0.2753183841705322
			],
			"type":"VEC3"
		},
		{
			"bufferView":33,
			"componentType":5126,
			"count":960,
			"type":"VEC3"
		},
		{
			"bufferView":34,
			"componentType":5126,
			"count":960,
			"type":"VEC2"
		},
		{
			"bufferView":35,
			"componentType":5123,
			"count":1080,
			"type":"SCALAR"
		},
		{
			"bufferView":36,
			"componentType":5126,
			"count":800,
			"max":[
				0.36693257093429565,
				1.7999999523162842,
				0.20917442440986633
			],
			"min":[
				-0.3720148205757141,
				1.3472000360488892,
				-0.17383088171482086
			],
			"type":"VEC3"
		},
		{
			"bufferView":37,
			"componentType":5126,
			"count":800,
			"type":"VEC3"
		},
		{
			"bufferView":38,
			"componentType":5126,
			"count":800,
			"type":"VEC2"
		},
		{
			"bufferView":39,
			"componentType":5123,
			"count":900,
			"type":"SCALAR"
		},
		{
			"bufferView":40,
			"componentType":5126,
			"count":1440,
			"max":[
				0.1722802370786667,
				0.0034999847412109375,
				0.15969383716583252
			],
			"min":[
				-0.20093783736228943,
				-0.7400000095367432,
				-0.37010064721107483
			],
			"type":"VEC3"
		},
		{
			"bufferView":41,
			"componentType":5126,
			"count":1440,
			"type":"VEC3"
		},
		{
			"bufferView":42,
			"componentType":5126,
			"count":1440,
			"type":"VEC2"
		},
		{
			"bufferView":43,
			"componentType":5123,
			"count":1620,
			"type":"SCALAR"
		},
		{
			"bufferView":44,
			"componentType":5126,
			"count":320,
			"max":[
				0.1517147719860077,
				0.006999969482421875,
				0.1699998825788498
			],
			"min":[
				-0.15056416392326355,
				-0.5879999995231628,
				-0.1400282233953476
			],
			"type":"VEC3"
		},
		{
			"bufferView":45,
			"componentType":5126,
			"count":320,
			"type":"VEC3"
		},
		{
			"bufferView":46,
			"componentType":5126,
			"count":320,
			"type":"VEC2"
		},
		{
			"bufferView":47,
			"componentType":5123,
			"count":360,
			"type":"SCALAR"
		},
		{
			"bufferView":48,
			"componentType":5126,
			"count":1440,
			"max":[
				0.19862967729568481,
				0.0034999847412109375,
				0.16312560439109802
			],
			"min":[
				-0.16791434586048126,
				-0.7400000095367432,
				-0.369800329208374
			],
			"type":"VEC3"
		},
		{
			"bufferView":49,
			"componentType":5126,
			"count":1440,
			"type":"VEC3"
		},
		{
			"bufferView":50,
			"componentType":5126,
			"count":1440,
			"type":"VEC2"
		},
		{
			"bufferView":51,
			"componentType":5123,
			"count":1620,
			"type":"SCALAR"
		},
		{
			"bufferView":52,
			"componentType":5126,
			"count":320,
			"max":[
				0.1518506407737732,
				0.006999969482421875,
				0.17145057022571564
			],
			"min":[
				-0.14697502553462982,
				-0.5879999995231628,
				-0.14487838745117188
			],
			"type":"VEC3"
		},
		{
			"bufferView":53,
			"componentType":5126,
			"count":320,
			"type":"VEC3"
		},
		{
			"bufferView":54,
			"componentType":5126,
			"count":320,
			"type":"VEC2"
		},
		{
			"bufferView":55,
			"componentType":5123,
			"count":360,
			"type":"SCALAR"
		}
	],
	"bufferViews":[
		{
			"buffer":0,
			"byteLength":28800,
			"byteOffset":0,
			"target":34962
		},
		{
			"buffer":0,
			"byteLength":28800,
			"byteOffset":28800,
			"target":34962
		},
		{
			"buffer":0,
			"byteLength":19200,
			"byteOffset":57600,
			"target":34962
		},
		{
			"buffer":0,
			"byteLength":5400,
			"byteOffset":76800,
			"target":34963
		},
		{
			"buffer":0,
			"byteLength":5760,
			"byteOffset":82200,
			"target":34962
		},
		{
			"buffer":0,
			"byteLength":5760,
			"byteOffset":87960,
			"target":34962
		},
		{
			"buffer":0,
			"byteLength":3840,
			"byteOffset":93720,
			"target":34962
		},
		{
			"buffer":0,
			"byteLength":1080,
			"byteOffset":97560,
			"target":34963
		},
		{
			"buffer":0,
			"byteLength":5760,
			"byteOffset":98640,
			"target":34962
		},
		{
			"buffer":0,
			"byteLength":5760,
			"byteOffset":104400,
			"target":34962
		},
		{
			"buffer":0,
			"byteLength":3840,
			"byteOffset":110160,
			"target":34962
		},
		{
			"buffer":0,
			"byteLength":1080,
			"byteOffset":114000,
			"target":34963
		},
		{
			"buffer":0,
			"byteLength":28800,
			"byteOffset":115080,
			"target":34962
		},
		{
			"buffer":0,
			"byteLength":28800,
			"byteOffset":143880,
			"target":34962
		},
		{
			"buffer":0,
			"byteLength":19200,
			"byteOffset":172680,
			"target":34962
		},
		{
			"buffer":0,
			"byteLength":5400,
			"byteOffset":191880,
			"target":34963
		},
		{
			"buffer":0,
			"byteLength":5760,
			"byteOffset":197280,
			"target":34962
		},
		{
			"buffer":0,
			"byteLength":5760,
			"byteOffset":203040,
			"target":34962
		},
		{
			"buffer":0,
			"byteLength":3840,
			"byteOffset":208800,
			"target":34962
		},
		{
			"buffer":0,
			"byteLength":1080,
			"byteOffset":212640,
			"target":34963
		},
		{
			"buffer":0,
			"byteLength":5760,
			"byteOffset":213720,
			"target":34962
		},
		{
			"buffer":0,
			"byteLength":5760,
			"byteOffset":219480,
			"target":34962
		},
		{
			"buffer":0,
			"byteLength":3840,
			"byteOffset":225240,
			"target":34962
		},
		{
			"buffer":0,
			"byteLength":1080,
			"byteOffset":229080,
			"target":34963
		},
		{
			"buffer":0,
			"byteLength":3840,
			"byteOffset":230160,
			"target":34962
		},
		{
			"buffer":0,
			"byteLength":3840,
			"byteOffset":234000,
			"target":34962
		},
		{
			"buffer":0,
			"byteLength":2560,
			"byteOffset":237840,
			"target":34962
		},
		{
			"buffer":0,
			"byteLength":720,
			"byteOffset":240400,
			"target":34963
		},
		{
			"buffer":0,
			"byteLength":90216,
			"byteOffset":241120,
			"target":34962
		},
		{
			"buffer":0,
			"byteLength":90216,
			"byteOffset":331336,
			"target":34962
		},
		{
			"buffer":0,
			"byteLength":60144,
			"byteOffset":421552,
			"target":34962
		},
		{
			"buffer":0,
			"byteLength":16920,
			"byteOffset":481696,
			"target":34963
		},
		{
			"buffer":0,
			"byteLength":11520,
			"byteOffset":498616,
			"target":34962
		},
		{
			"buffer":0,
			"byteLength":11520,
			"byteOffset":510136,
			"target":34962
		},
		{
			"buffer":0,
			"byteLength":7680,
			"byteOffset":521656,
			"target":34962
		},
		{
			"buffer":0,
			"byteLength":2160,
			"byteOffset":529336,
			"target":34963
		},
		{
			"buffer":0,
			"byteLength":9600,
			"byteOffset":531496,
			"target":34962
		},
		{
			"buffer":0,
			"byteLength":9600,
			"byteOffset":541096,
			"target":34962
		},
		{
			"buffer":0,
			"byteLength":6400,
			"byteOffset":550696,
			"target":34962
		},
		{
			"buffer":0,
			"byteLength":1800,
			"byteOffset":557096,
			"target":34963
		},
		{
			"buffer":0,
			"byteLength":17280,
			"byteOffset":558896,
			"target":34962
		},
		{
			"buffer":0,
			"byteLength":17280,
			"byteOffset":576176,
			"target":34962
		},
		{
			"buffer":0,
			"byteLength":11520,
			"byteOffset":593456,
			"target":34962
		},
		{
			"buffer":0,
			"byteLength":3240,
			"byteOffset":604976,
			"target":34963
		},
		{
			"buffer":0,
			"byteLength":3840,
			"byteOffset":608216,
			"target":34962
		},
		{
			"buffer":0,
			"byteLength":3840,
			"byteOffset":612056,
			"target":34962
		},
		{
			"buffer":0,
			"byteLength":2560,
			"byteOffset":615896,
			"target":34962
		},
		{
			"buffer":0,
			"byteLength":720,
			"byteOffset":618456,
			"target":34963
		},
		{
			"buffer":0,
			"byteLength":17280,
			"byteOffset":619176,
			"target":34962
		},
		{
			"buffer":0,
			"byteLength":17280,
			"byteOffset":636456,
			"target":34962
		},
		{
			"buffer":0,
			"byteLength":11520,
			"byteOffset":653736,
			"target":34962
		},
		{
			"buffer":0,
			"byteLength":3240,
			"byteOffset":665256,
			"target":34963
		},
		{
			"buffer":0,
			"byteLength":3840,
			"byteOffset":668496,
			"target":34962
		},
		{
			"buffer":0,
			"byteLength":3840,
			"byteOffset":672336,
			"target":34962
		},
		{
			"buffer":0,
			"byteLength":2560,
			"byteOffset":676176,
			"target":34962
		},
		{
			"buffer":0,
			"byteLength":720,
			"byteOffset":678736,
			"target":34963
		}
	],
	"samplers":[
		{
			"magFilter":9729,
			"minFilter":9987
		}
	],
	"buffers":[
		{
			"byteLength":679456,
			"uri":"guardian.bin"
		}
	]
}
