{
	"asset":{
		"generator":"Khronos glTF Blender I/O v5.2.40",
		"version":"2.0"
	},
	"extensionsUsed":[
		"KHR_materials_emissive_strength"
	],
	"scene":0,
	"scenes":[
		{
			"name":"Scene",
			"nodes":[
				14
			]
		}
	],
	"nodes":[
		{
			"mesh":0,
			"name":"CavewingBody | Fauna | amber eyes"
		},
		{
			"mesh":1,
			"name":"CavewingBody | Fauna | burgundy scales"
		},
		{
			"mesh":2,
			"name":"CavewingBody | Fauna | fractured obsidian"
		},
		{
			"children":[
				0,
				1,
				2
			],
			"extras":{
				"game_pivot_xyz_m":[
					0,
					0,
					0
				],
				"local_axes":"Y up; -Z forward; L means negative X"
			},
			"name":"CavewingBody"
		},
		{
			"mesh":3,
			"name":"WingL | Fauna | burgundy scales"
		},
		{
			"mesh":4,
			"name":"WingL | Fauna | fractured obsidian"
		},
		{
			"mesh":5,
			"name":"WingL | Fauna | warm membrane facets"
		},
		{
			"mesh":6,
			"name":"WingL | Fauna | wine wing membrane"
		},
		{
			"children":[
				4,
				5,
				6,
				7
			],
			"extras":{
				"game_pivot_xyz_m":[
					-0.18,
					0.0,
					-0.08
				],
				"local_axes":"Y up; -Z forward; L means negative X",
				"flap_axis":"local Z",
				"upstroke_sign":-1
			},
			"name":"WingL",
			"translation":[
				-0.18000000715255737,
				0,
				-0.07999999821186066
			]
		},
		{
			"mesh":7,
			"name":"WingR | Fauna | burgundy scales"
		},
		{
			"mesh":8,
			"name":"WingR | Fauna | fractured obsidian"
		},
		{
			"mesh":9,
			"name":"WingR | Fauna | warm membrane facets"
		},
		{
			"mesh":10,
			"name":"WingR | Fauna | wine wing membrane"
		},
		{
			"children":[
				9,
				10,
				11,
				12
			],
			"extras":{
				"game_pivot_xyz_m":[
					0.18,
					0.0,
					-0.08
				],
				"local_axes":"Y up; -Z forward; L means negative X",
				"flap_axis":"local Z",
				"upstroke_sign":1
			},
			"name":"WingR",
			"translation":[
				0.18000000715255737,
				0,
				-0.07999999821186066
			]
		},
		{
			"children":[
				3,
				8,
				13
			],
			"name":"Cavewing"
		}
	],
	"materials":[
		{
			"doubleSided":true,
			"emissiveFactor":[
				1,
				0.28999999165534973,
				0.03500000014901161
			],
			"extensions":{
				"KHR_materials_emissive_strength":{
					"emissiveStrength":3.4000000953674316
				}
			},
			"name":"Fauna | amber eyes",
			"pbrMetallicRoughness":{
				"baseColorFactor":[
					1,
					0.28999999165534973,
					0.03500000014901161,
					1
				],
				"metallicFactor":0,
				"roughnessFactor":0.27000001072883606
			}
		},
		{
			"doubleSided":true,
			"name":"Fauna | burgundy scales",
			"pbrMetallicRoughness":{
				"baseColorTexture":{
					"index":0
				},
				"metallicFactor":0.07999999821186066,
				"roughnessFactor":0.6600000262260437
			}
		},
		{
			"doubleSided":true,
			"name":"Fauna | fractured obsidian",
			"pbrMetallicRoughness":{
				"baseColorFactor":[
					0.020999999716877937,
					0.03200000151991844,
					0.03700000047683716,
					1
				],
				"metallicFactor":0.23000000417232513,
				"roughnessFactor":0.30000001192092896
			}
		},
		{
			"doubleSided":true,
			"name":"Fauna | warm membrane facets",
			"pbrMetallicRoughness":{
				"baseColorTexture":{
					"index":1
				},
				"metallicFactor":0,
				"roughnessFactor":0.7699999809265137
			}
		},
		{
			"doubleSided":true,
			"name":"Fauna | wine wing membrane",
			"pbrMetallicRoughness":{
				"baseColorTexture":{
					"index":2
				},
				"metallicFactor":0,
				"roughnessFactor":0.8100000023841858
			}
		}
	],
	"meshes":[
		{
			"name":"CavewingBody | Fauna | amber eyes",
			"primitives":[
				{
					"attributes":{
						"POSITION":0,
						"NORMAL":1,
						"TEXCOORD_0":2
					},
					"indices":3,
					"material":0
				}
			]
		},
		{
			"name":"CavewingBody | Fauna | burgundy scales",
			"primitives":[
				{
					"attributes":{
						"POSITION":4,
						"NORMAL":5,
						"TEXCOORD_0":6
					},
					"indices":7,
					"material":1
				}
			]
		},
		{
			"name":"CavewingBody | Fauna | fractured obsidian",
			"primitives":[
				{
					"attributes":{
						"POSITION":8,
						"NORMAL":9,
						"TEXCOORD_0":10
					},
					"indices":11,
					"material":2
				}
			]
		},
		{
			"name":"WingL | Fauna | burgundy scales",
			"primitives":[
				{
					"attributes":{
						"POSITION":12,
						"NORMAL":13,
						"TEXCOORD_0":14
					},
					"indices":15,
					"material":1
				}
			]
		},
		{
			"name":"WingL | Fauna | fractured obsidian",
			"primitives":[
				{
					"attributes":{
						"POSITION":16,
						"NORMAL":17,
						"TEXCOORD_0":18
					},
					"indices":19,
					"material":2
				}
			]
		},
		{
			"name":"WingL | Fauna | warm membrane facets",
			"primitives":[
				{
					"attributes":{
						"POSITION":20,
						"NORMAL":21,
						"TEXCOORD_0":22
					},
					"indices":23,
					"material":3
				}
			]
		},
		{
			"name":"WingL | Fauna | wine wing membrane",
			"primitives":[
				{
					"attributes":{
						"POSITION":24,
						"NORMAL":25,
						"TEXCOORD_0":26
					},
					"indices":27,
					"material":4
				}
			]
		},
		{
			"name":"WingR | Fauna | burgundy scales",
			"primitives":[
				{
					"attributes":{
						"POSITION":28,
						"NORMAL":29,
						"TEXCOORD_0":30
					},
					"indices":31,
					"material":1
				}
			]
		},
		{
			"name":"WingR | Fauna | fractured obsidian",
			"primitives":[
				{
					"attributes":{
						"POSITION":32,
						"NORMAL":33,
						"TEXCOORD_0":34
					},
					"indices":35,
					"material":2
				}
			]
		},
		{
			"name":"WingR | Fauna | warm membrane facets",
			"primitives":[
				{
					"attributes":{
						"POSITION":36,
						"NORMAL":37,
						"TEXCOORD_0":38
					},
					"indices":39,
					"material":3
				}
			]
		},
		{
			"name":"WingR | Fauna | wine wing membrane",
			"primitives":[
				{
					"attributes":{
						"POSITION":40,
						"NORMAL":41,
						"TEXCOORD_0":42
					},
					"indices":43,
					"material":4
				}
			]
		}
	],
	"textures":[
		{
			"sampler":0,
			"source":0
		},
		{
			"sampler":0,
			"source":0
		},
		{
			"sampler":0,
			"source":0
		}
	],
	"images":[
		{
			"mimeType":"image/png",
			"name":"stone",
			"uri":"stone.png"
		}
	],
	"accessors":[
		{
			"bufferView":0,
			"componentType":5126,
			"count":320,
			"max":[
				0.13910898566246033,
				0.09149999916553497,
				-0.6888243556022644
			],
			"min":[
				-0.1391070932149887,
				0.06849999725818634,
				-0.7292224764823914
			],
			"type":"VEC3"
		},
		{
			"bufferView":1,
			"componentType":5126,
			"count":320,
			"type":"VEC3"
		},
		{
			"bufferView":2,
			"componentType":5126,
			"count":320,
			"type":"VEC2"
		},
		{
			"bufferView":3,
			"componentType":5123,
			"count":360,
			"type":"SCALAR"
		},
		{
			"bufferView":4,
			"componentType":5126,
			"count":4234,
			"max":[
				0.21988561749458313,
				0.1665000021457672,
				0.6809046268463135
			],
			"min":[
				-0.2244756817817688,
				-0.23838864266872406,
				-0.8199999928474426
			],
			"type":"VEC3"
		},
		{
			"bufferView":5,
			"componentType":5126,
			"count":4234,
			"type":"VEC3"
		},
		{
			"bufferView":6,
			"componentType":5126,
			"count":4234,
			"type":"VEC2"
		},
		{
			"bufferView":7,
			"componentType":5123,
			"count":4788,
			"type":"SCALAR"
		},
		{
			"bufferView":8,
			"componentType":5126,
			"count":1744,
			"max":[
				0.23199999332427979,
				0.35869231820106506,
				0.49131467938423157
			],
			"min":[
				-0.22913524508476257,
				-0.2625650465488434,
				-0.8199999928474426
			],
			"type":"VEC3"
		},
		{
			"bufferView":9,
			"componentType":5126,
			"count":1744,
			"type":"VEC3"
		},
		{
			"bufferView":10,
			"componentType":5126,
			"count":1744,
			"type":"VEC2"
		},
		{
			"bufferView":11,
			"componentType":5123,
			"count":2028,
			"type":"SCALAR"
		},
		{
			"bufferView":12,
			"componentType":5126,
			"count":1544,
			"max":[
				0.06347697228193283,
				0.19021454453468323,
				0.7472584843635559
			],
			"min":[
				-1.826524019241333,
				-0.15760846436023712,
				-0.5079956650733948
			],
			"type":"VEC3"
		},
		{
			"bufferView":13,
			"componentType":5126,
			"count":1544,
			"type":"VEC3"
		},
		{
			"bufferView":14,
			"componentType":5126,
			"count":1544,
			"type":"VEC2"
		},
		{
			"bufferView":15,
			"componentType":5123,
			"count":1656,
			"type":"SCALAR"
		},
		{
			"bufferView":16,
			"componentType":5126,
			"count":552,
			"max":[
				-0.09907817840576172,
				0.28279629349708557,
				-0.057250067591667175
			],
			"min":[
				-1.29124116897583,
				0.04399999976158142,
				-0.4986559748649597
			],
			"type":"VEC3"
		},
		{
			"bufferView":17,
			"componentType":5126,
			"count":552,
			"type":"VEC3"
		},
		{
			"bufferView":18,
			"componentType":5126,
			"count":552,
			"type":"VEC2"
		},
		{
			"bufferView":19,
			"componentType":5123,
			"count":618,
			"type":"SCALAR"
		},
		{
			"bufferView":20,
			"componentType":5126,
			"count":641,
			"max":[
				-0.019999995827674866,
				0.14000000059604645,
				0.7400000095367432
			],
			"min":[
				-1.8199999332427979,
				-0.2070000022649765,
				-0.44999998807907104
			],
			"type":"VEC3"
		},
		{
			"bufferView":21,
			"componentType":5126,
			"count":641,
			"type":"VEC3"
		},
		{
			"bufferView":22,
			"componentType":5126,
			"count":641,
			"type":"VEC2"
		},
		{
			"bufferView":23,
			"componentType":5123,
			"count":840,
			"type":"SCALAR"
		},
		{
			"bufferView":24,
			"componentType":5126,
			"count":760,
			"max":[
				-0.12999999523162842,
				0.14000000059604645,
				0.7400000095367432
			],
			"min":[
				-1.5999999046325684,
				-0.2070000022649765,
				-0.44999998807907104
			],
			"type":"VEC3"
		},
		{
			"bufferView":25,
			"componentType":5126,
			"count":760,
			"type":"VEC3"
		},
		{
			"bufferView":26,
			"componentType":5126,
			"count":760,
			"type":"VEC2"
		},
		{
			"bufferView":27,
			"componentType":5123,
			"count":1008,
			"type":"SCALAR"
		},
		{
			"bufferView":28,
			"componentType":5126,
			"count":1536,
			"max":[
				1.8256118297576904,
				0.19021454453468323,
				0.745994508266449
			],
			"min":[
				-0.06347697228193283,
				-0.15760846436023712,
				-0.5079956650733948
			],
			"type":"VEC3"
		},
		{
			"bufferView":29,
			"componentType":5126,
			"count":1536,
			"type":"VEC3"
		},
		{
			"bufferView":30,
			"componentType":5126,
			"count":1536,
			"type":"VEC2"
		},
		{
			"bufferView":31,
			"componentType":5123,
			"count":1656,
			"type":"SCALAR"
		},
		{
			"bufferView":32,
			"componentType":5126,
			"count":554,
			"max":[
				1.2918567657470703,
				0.28279629349708557,
				-0.05647510290145874
			],
			"min":[
				0.09928590059280396,
				0.04399999976158142,
				-0.500315248966217
			],
			"type":"VEC3"
		},
		{
			"bufferView":33,
			"componentType":5126,
			"count":554,
			"type":"VEC3"
		},
		{
			"bufferView":34,
			"componentType":5126,
			"count":554,
			"type":"VEC2"
		},
		{
			"bufferView":35,
			"componentType":5123,
			"count":618,
			"type":"SCALAR"
		},
		{
			"bufferView":36,
			"componentType":5126,
			"count":636,
			"max":[
				1.8199999332427979,
				0.14000000059604645,
				0.7400000095367432
			],
			"min":[
				0.019999995827674866,
				-0.2070000022649765,
				-0.44999998807907104
			],
			"type":"VEC3"
		},
		{
			"bufferView":37,
			"componentType":5126,
			"count":636,
			"type":"VEC3"
		},
		{
			"bufferView":38,
			"componentType":5126,
			"count":636,
			"type":"VEC2"
		},
		{
			"bufferView":39,
			"componentType":5123,
			"count":840,
			"type":"SCALAR"
		},
		{
			"bufferView":40,
			"componentType":5126,
			"count":760,
			"max":[
				1.5999999046325684,
				0.14000000059604645,
				0.7400000095367432
			],
			"min":[
				0.12999999523162842,
				-0.2070000022649765,
				-0.44999998807907104
			],
			"type":"VEC3"
		},
		{
			"bufferView":41,
			"componentType":5126,
			"count":760,
			"type":"VEC3"
		},
		{
			"bufferView":42,
			"componentType":5126,
			"count":760,
			"type":"VEC2"
		},
		{
			"bufferView":43,
			"componentType":5123,
			"count":1008,
			"type":"SCALAR"
		}
	],
	"bufferViews":[
		{
			"buffer":0,
			"byteLength":3840,
			"byteOffset":0,
			"target":34962
		},
		{
			"buffer":0,
			"byteLength":3840,
			"byteOffset":3840,
			"target":34962
		},
		{
			"buffer":0,
			"byteLength":2560,
			"byteOffset":7680,
			"target":34962
		},
		{
			"buffer":0,
			"byteLength":720,
			"byteOffset":10240,
			"target":34963
		},
		{
			"buffer":0,
			"byteLength":50808,
			"byteOffset":10960,
			"target":34962
		},
		{
			"buffer":0,
			"byteLength":50808,
			"byteOffset":61768,
			"target":34962
		},
		{
			"buffer":0,
			"byteLength":33872,
			"byteOffset":112576,
			"target":34962
		},
		{
			"buffer":0,
			"byteLength":9576,
			"byteOffset":146448,
			"target":34963
		},
		{
			"buffer":0,
			"byteLength":20928,
			"byteOffset":156024,
			"target":34962
		},
		{
			"buffer":0,
			"byteLength":20928,
			"byteOffset":176952,
			"target":34962
		},
		{
			"buffer":0,
			"byteLength":13952,
			"byteOffset":197880,
			"target":34962
		},
		{
			"buffer":0,
			"byteLength":4056,
			"byteOffset":211832,
			"target":34963
		},
		{
			"buffer":0,
			"byteLength":18528,
			"byteOffset":215888,
			"target":34962
		},
		{
			"buffer":0,
			"byteLength":18528,
			"byteOffset":234416,
			"target":34962
		},
		{
			"buffer":0,
			"byteLength":12352,
			"byteOffset":252944,
			"target":34962
		},
		{
			"buffer":0,
			"byteLength":3312,
			"byteOffset":265296,
			"target":34963
		},
		{
			"buffer":0,
			"byteLength":6624,
			"byteOffset":268608,
			"target":34962
		},
		{
			"buffer":0,
			"byteLength":6624,
			"byteOffset":275232,
			"target":34962
		},
		{
			"buffer":0,
			"byteLength":4416,
			"byteOffset":281856,
			"target":34962
		},
		{
			"buffer":0,
			"byteLength":1236,
			"byteOffset":286272,
			"target":34963
		},
		{
			"buffer":0,
			"byteLength":7692,
			"byteOffset":287508,
			"target":34962
		},
		{
			"buffer":0,
			"byteLength":7692,
			"byteOffset":295200,
			"target":34962
		},
		{
			"buffer":0,
			"byteLength":5128,
			"byteOffset":302892,
			"target":34962
		},
		{
			"buffer":0,
			"byteLength":1680,
			"byteOffset":308020,
			"target":34963
		},
		{
			"buffer":0,
			"byteLength":9120,
			"byteOffset":309700,
			"target":34962
		},
		{
			"buffer":0,
			"byteLength":9120,
			"byteOffset":318820,
			"target":34962
		},
		{
			"buffer":0,
			"byteLength":6080,
			"byteOffset":327940,
			"target":34962
		},
		{
			"buffer":0,
			"byteLength":2016,
			"byteOffset":334020,
			"target":34963
		},
		{
			"buffer":0,
			"byteLength":18432,
			"byteOffset":336036,
			"target":34962
		},
		{
			"buffer":0,
			"byteLength":18432,
			"byteOffset":354468,
			"target":34962
		},
		{
			"buffer":0,
			"byteLength":12288,
			"byteOffset":372900,
			"target":34962
		},
		{
			"buffer":0,
			"byteLength":3312,
			"byteOffset":385188,
			"target":34963
		},
		{
			"buffer":0,
			"byteLength":6648,
			"byteOffset":388500,
			"target":34962
		},
		{
			"buffer":0,
			"byteLength":6648,
			"byteOffset":395148,
			"target":34962
		},
		{
			"buffer":0,
			"byteLength":4432,
			"byteOffset":401796,
			"target":34962
		},
		{
			"buffer":0,
			"byteLength":1236,
			"byteOffset":406228,
			"target":34963
		},
		{
			"buffer":0,
			"byteLength":7632,
			"byteOffset":407464,
			"target":34962
		},
		{
			"buffer":0,
			"byteLength":7632,
			"byteOffset":415096,
			"target":34962
		},
		{
			"buffer":0,
			"byteLength":5088,
			"byteOffset":422728,
			"target":34962
		},
		{
			"buffer":0,
			"byteLength":1680,
			"byteOffset":427816,
			"target":34963
		},
		{
			"buffer":0,
			"byteLength":9120,
			"byteOffset":429496,
			"target":34962
		},
		{
			"buffer":0,
			"byteLength":9120,
			"byteOffset":438616,
			"target":34962
		},
		{
			"buffer":0,
			"byteLength":6080,
			"byteOffset":447736,
			"target":34962
		},
		{
			"buffer":0,
			"byteLength":2016,
			"byteOffset":453816,
			"target":34963
		}
	],
	"samplers":[
		{
			"magFilter":9729,
			"minFilter":9987
		}
	],
	"buffers":[
		{
			"byteLength":455832,
			"uri":"cavewing.bin"
		}
	]
}
